<svg xmlns="http://www.w3.org/2000/svg" xmlns:svg="http://www.w3.org/2000/svg" xmlns:xlink="http://www.w3.org/1999/xlink" id="svg500" width="261.792" height="202.23" version="1.1" viewBox="0 0 222.524 171.896"><metadata id="metadata504"/><defs style="stroke-linecap:butt;stroke-linejoin:round" id="defs4"><style id="style2" type="text/css">*{stroke-linecap:butt;stroke-linejoin:round}</style></defs><g style="stroke-linecap:butt;stroke-linejoin:round" id="figure_1" transform="translate(9.0666667,9.0666667)"><g style="stroke-linecap:butt;stroke-linejoin:round" id="patch_1"><path id="path6" d="M 0,153.7624 H 204.39028 V 0 H 0 Z" style="fill:#fff;stroke-linecap:butt;stroke-linejoin:round"/></g><g style="stroke-linecap:butt;stroke-linejoin:round" id="axes_1"><g style="stroke-linecap:butt;stroke-linejoin:round" id="patch_2"><path id="path9" d="M 20.530279,130.7464 H 199.09028 V 5.3 H 20.530279 Z" style="fill:#fff;stroke-linecap:butt;stroke-linejoin:round"/></g><g style="stroke-linecap:butt;stroke-linejoin:round" id="matplotlib.axis_1"><g style="stroke-linecap:butt;stroke-linejoin:round" id="xtick_1"><g style="stroke-linecap:butt;stroke-linejoin:round" id="line2d_1"><path id="path12" d="M 46.683006,130.7464 V 5.3" clip-path="url(#pe44d299347)" style="fill:none;stroke:#000;stroke-width:.2;stroke-linecap:butt;stroke-linejoin:round;stroke-dasharray:.4,3.2;stroke-dashoffset:0"/></g><g style="stroke-linecap:butt;stroke-linejoin:round" id="line2d_2"><defs id="defs16"><path style="stroke:#000;stroke-width:.5;stroke-linecap:butt;stroke-linejoin:round" id="m3205081365" d="M 0,0 V 3.5"/></defs><g style="stroke-linecap:butt;stroke-linejoin:round" id="g20"><use id="use18" width="100%" height="100%" x="46.683" y="130.746" xlink:href="#m3205081365" style="stroke:#000;stroke-width:.5;stroke-linecap:butt;stroke-linejoin:round"/></g></g><g style="stroke-linecap:butt;stroke-linejoin:round" id="text_1"><defs id="defs24"><path style="stroke-linecap:butt;stroke-linejoin:round" id="DejaVuSans-32" d="M 19.1875,8.296875 H 53.609375 V 0 H 7.328125 v 8.296875 q 5.609375,5.8125 15.296875,15.59375 9.703125,9.796875 12.1875,12.640625 4.734375,5.3125 6.609375,9 1.890625,3.6875 1.890625,7.25 0,5.8125 -4.078125,9.46875 -4.078125,3.671875 -10.625,3.671875 -4.640625,0 -9.796875,-1.609375 -5.140625,-1.609375 -11,-4.890625 v 9.96875 Q 13.765625,71.78125 18.9375,73 q 5.1875,1.21875 9.484375,1.21875 11.328125,0 18.0625,-5.671875 6.734375,-5.65625 6.734375,-15.125 0,-4.5 -1.6875,-8.53125 Q 49.859375,40.875 45.40625,35.40625 44.1875,33.984375 37.640625,27.21875 31.109375,20.453125 19.1875,8.296875"/></defs><g style="stroke-linecap:butt;stroke-linejoin:round" id="g28" transform="matrix(0.07497,0,0,-0.07497,44.298023,140.69295)"><use style="stroke-linecap:butt;stroke-linejoin:round" id="use26" width="100%" height="100%" x="0" y="0" xlink:href="#DejaVuSans-32"/></g></g></g><g style="stroke-linecap:butt;stroke-linejoin:round" id="xtick_2"><g style="stroke-linecap:butt;stroke-linejoin:round" id="line2d_3"><path id="path32" d="M 82.755733,130.7464 V 5.3" clip-path="url(#pe44d299347)" style="fill:none;stroke:#000;stroke-width:.2;stroke-linecap:butt;stroke-linejoin:round;stroke-dasharray:.4,3.2;stroke-dashoffset:0"/></g><g style="stroke-linecap:butt;stroke-linejoin:round" id="line2d_4"><g style="stroke-linecap:butt;stroke-linejoin:round" id="g37"><use id="use35" width="100%" height="100%" x="82.756" y="130.746" xlink:href="#m3205081365" style="stroke:#000;stroke-width:.5;stroke-linecap:butt;stroke-linejoin:round"/></g></g><g style="stroke-linecap:butt;stroke-linejoin:round" id="text_2"><defs id="defs41"><path style="stroke-linecap:butt;stroke-linejoin:round" id="DejaVuSans-34" d="M 37.796875,64.3125 12.890625,25.390625 h 24.90625 z m -2.59375,8.59375 h 12.40625 V 25.390625 h 10.40625 V 17.1875 H 47.609375 V 0 h -9.8125 V 17.1875 H 4.890625 v 9.515625 z"/></defs><g style="stroke-linecap:butt;stroke-linejoin:round" id="g45" transform="matrix(0.07497,0,0,-0.07497,80.37075,140.69295)"><use style="stroke-linecap:butt;stroke-linejoin:round" id="use43" width="100%" height="100%" x="0" y="0" xlink:href="#DejaVuSans-34"/></g></g></g><g style="stroke-linecap:butt;stroke-linejoin:round" id="xtick_3"><g style="stroke-linecap:butt;stroke-linejoin:round" id="line2d_5"><path id="path49" d="M 118.82846,130.7464 V 5.3" clip-path="url(#pe44d299347)" style="fill:none;stroke:#000;stroke-width:.2;stroke-linecap:butt;stroke-linejoin:round;stroke-dasharray:.4,3.2;stroke-dashoffset:0"/></g><g style="stroke-linecap:butt;stroke-linejoin:round" id="line2d_6"><g style="stroke-linecap:butt;stroke-linejoin:round" id="g54"><use id="use52" width="100%" height="100%" x="118.828" y="130.746" xlink:href="#m3205081365" style="stroke:#000;stroke-width:.5;stroke-linecap:butt;stroke-linejoin:round"/></g></g><g style="stroke-linecap:butt;stroke-linejoin:round" id="text_3"><defs id="defs58"><path style="stroke-linecap:butt;stroke-linejoin:round" id="DejaVuSans-36" d="m 33.015625,40.375 q -6.640625,0 -10.53125,-4.546875 -3.875,-4.53125 -3.875,-12.4375 0,-7.859375 3.875,-12.4375 3.890625,-4.5625 10.53125,-4.5625 6.640625,0 10.515625,4.5625 3.875,4.578125 3.875,12.4375 0,7.90625 -3.875,12.4375 Q 39.65625,40.375 33.015625,40.375 M 52.59375,71.296875 V 62.3125 q -3.71875,1.75 -7.5,2.671875 -3.78125,0.9375 -7.5,0.9375 -9.765625,0 -14.921875,-6.59375 -5.140625,-6.59375 -5.875,-19.921875 2.875,4.25 7.21875,6.515625 4.359375,2.265625 9.578125,2.265625 10.984375,0 17.359375,-6.671875 6.375,-6.65625 6.375,-18.125 0,-11.234375 -6.640625,-18.03125 -6.640625,-6.78125 -17.671875,-6.78125 -12.65625,0 -19.34375,9.6875 -6.6875,9.703125 -6.6875,28.109375 0,17.28125 8.203125,27.5625 8.203125,10.28125 22.015625,10.28125 3.71875,0 7.5,-0.734375 3.78125,-0.734375 7.890625,-2.1875"/></defs><g style="stroke-linecap:butt;stroke-linejoin:round" id="g62" transform="matrix(0.07497,0,0,-0.07497,116.44348,140.69295)"><use style="stroke-linecap:butt;stroke-linejoin:round" id="use60" width="100%" height="100%" x="0" y="0" xlink:href="#DejaVuSans-36"/></g></g></g><g style="stroke-linecap:butt;stroke-linejoin:round" id="xtick_4"><g style="stroke-linecap:butt;stroke-linejoin:round" id="line2d_7"><path id="path66" d="M 154.90119,130.7464 V 5.3" clip-path="url(#pe44d299347)" style="fill:none;stroke:#000;stroke-width:.2;stroke-linecap:butt;stroke-linejoin:round;stroke-dasharray:.4,3.2;stroke-dashoffset:0"/></g><g style="stroke-linecap:butt;stroke-linejoin:round" id="line2d_8"><g style="stroke-linecap:butt;stroke-linejoin:round" id="g71"><use id="use69" width="100%" height="100%" x="154.901" y="130.746" xlink:href="#m3205081365" style="stroke:#000;stroke-width:.5;stroke-linecap:butt;stroke-linejoin:round"/></g></g><g style="stroke-linecap:butt;stroke-linejoin:round" id="text_4"><defs id="defs75"><path style="stroke-linecap:butt;stroke-linejoin:round" id="DejaVuSans-38" d="m 31.78125,34.625 q -7.03125,0 -11.0625,-3.765625 -4.015625,-3.765625 -4.015625,-10.34375 0,-6.59375 4.015625,-10.359375 4.03125,-3.765625 11.0625,-3.765625 7.03125,0 11.078125,3.78125 4.0625,3.796875 4.0625,10.34375 0,6.578125 -4.03125,10.34375 Q 38.875,34.625 31.78125,34.625 m -9.859375,4.1875 Q 15.578125,40.375 12.03125,44.71875 8.5,49.078125 8.5,55.328125 q 0,8.734375 6.21875,13.8125 6.234375,5.078125 17.0625,5.078125 10.890625,0 17.09375,-5.078125 6.203125,-5.078125 6.203125,-13.8125 0,-6.25 -3.546875,-10.609375 Q 48,40.375 41.703125,38.8125 q 7.125,-1.65625 11.09375,-6.5 3.984375,-4.828125 3.984375,-11.796875 0,-10.609375 -6.46875,-16.28125 -6.46875,-5.65625 -18.53125,-5.65625 -12.046875,0 -18.53125,5.65625 -6.46875,5.671875 -6.46875,16.28125 0,6.96875 4,11.796875 4.015625,4.84375 11.140625,6.5 M 18.3125,54.390625 q 0,-5.65625 3.53125,-8.828125 3.546875,-3.171875 9.9375,-3.171875 6.359375,0 9.9375,3.171875 3.59375,3.171875 3.59375,8.828125 0,5.671875 -3.59375,8.84375 -3.578125,3.171875 -9.9375,3.171875 -6.390625,0 -9.9375,-3.171875 Q 18.3125,60.0625 18.3125,54.390625"/></defs><g style="stroke-linecap:butt;stroke-linejoin:round" id="g79" transform="matrix(0.07497,0,0,-0.07497,152.51621,140.69295)"><use style="stroke-linecap:butt;stroke-linejoin:round" id="use77" width="100%" height="100%" x="0" y="0" xlink:href="#DejaVuSans-38"/></g></g></g><g style="stroke-linecap:butt;stroke-linejoin:round" id="xtick_5"><g style="stroke-linecap:butt;stroke-linejoin:round" id="line2d_9"><path id="path83" d="M 190.97391,130.7464 V 5.3" clip-path="url(#pe44d299347)" style="fill:none;stroke:#000;stroke-width:.2;stroke-linecap:butt;stroke-linejoin:round;stroke-dasharray:.4,3.2;stroke-dashoffset:0"/></g><g style="stroke-linecap:butt;stroke-linejoin:round" id="line2d_10"><g style="stroke-linecap:butt;stroke-linejoin:round" id="g88"><use id="use86" width="100%" height="100%" x="190.974" y="130.746" xlink:href="#m3205081365" style="stroke:#000;stroke-width:.5;stroke-linecap:butt;stroke-linejoin:round"/></g></g><g style="stroke-linecap:butt;stroke-linejoin:round" id="text_5"><defs id="defs93"><path style="stroke-linecap:butt;stroke-linejoin:round" id="DejaVuSans-31" d="m 12.40625,8.296875 h 16.109375 v 55.625 L 10.984375,60.40625 v 8.984375 l 17.4375,3.515625 H 38.28125 V 8.296875 H 54.390625 V 0 H 12.40625 Z"/><path style="stroke-linecap:butt;stroke-linejoin:round" id="DejaVuSans-30" d="m 31.78125,66.40625 q -7.609375,0 -11.453125,-7.5 Q 16.5,51.421875 16.5,36.375 q 0,-14.984375 3.828125,-22.484375 3.84375,-7.5 11.453125,-7.5 7.671875,0 11.5,7.5 3.84375,7.5 3.84375,22.484375 0,15.046875 -3.84375,22.53125 -3.828125,7.5 -11.5,7.5 m 0,7.8125 q 12.265625,0 18.734375,-9.703125 6.46875,-9.6875 6.46875,-28.140625 0,-18.40625 -6.46875,-28.109375 -6.46875,-9.6875 -18.734375,-9.6875 -12.25,0 -18.71875,9.6875 Q 6.59375,17.96875 6.59375,36.375 q 0,18.453125 6.46875,28.140625 6.46875,9.703125 18.71875,9.703125"/></defs><g style="stroke-linecap:butt;stroke-linejoin:round" id="g99" transform="matrix(0.07497,0,0,-0.07497,186.20395,140.69295)"><use style="stroke-linecap:butt;stroke-linejoin:round" id="use95" width="100%" height="100%" x="0" y="0" xlink:href="#DejaVuSans-31"/><use style="stroke-linecap:butt;stroke-linejoin:round" id="use97" width="100%" height="100%" x="63.623" y="0" xlink:href="#DejaVuSans-30"/></g></g></g><g style="stroke-linecap:butt;stroke-linejoin:round" id="text_6"><defs id="defs117"><path style="stroke-linecap:butt;stroke-linejoin:round" id="DejaVuSans-53" d="m 53.515625,70.515625 v -9.625 q -5.609375,2.6875 -10.59375,4 -4.984375,1.328125 -9.625,1.328125 -8.046875,0 -12.421875,-3.125 -4.375,-3.125 -4.375,-8.890625 0,-4.84375 2.90625,-7.3125 2.90625,-2.453125 11.015625,-3.96875 L 36.375,41.703125 Q 47.40625,39.59375 52.65625,34.296875 57.90625,29 57.90625,20.125 q 0,-10.609375 -7.109375,-16.078125 -7.09375,-5.46875 -20.8125,-5.46875 -5.171875,0 -11.015625,1.171875 Q 13.140625,0.921875 6.890625,3.21875 V 13.375 q 6,-3.359375 11.765625,-5.078125 5.765625,-1.703125 11.328125,-1.703125 8.4375,0 13.03125,3.3125 4.59375,3.328125 4.59375,9.484375 0,5.359375 -3.296875,8.390625 Q 41.015625,30.8125 33.5,32.328125 L 27.484375,33.5 q -11.03125,2.1875 -15.96875,6.875 -4.921875,4.6875 -4.921875,13.046875 0,9.671875 6.8125,15.234375 6.8125,5.5625 18.765625,5.5625 5.140625,0 10.453125,-0.9375 5.328125,-0.921875 10.890625,-2.765625"/><path style="stroke-linecap:butt;stroke-linejoin:round" id="DejaVuSans-74" d="M 18.3125,70.21875 V 54.6875 h 18.5 v -6.984375 h -18.5 v -29.6875 q 0,-6.6875 1.828125,-8.59375 1.828125,-1.90625 7.453125,-1.90625 H 36.8125 V 0 H 27.59375 Q 17.1875,0 13.234375,3.875 9.28125,7.765625 9.28125,18.015625 v 29.6875 H 2.6875 V 54.6875 h 6.59375 v 15.53125 z"/><path style="stroke-linecap:butt;stroke-linejoin:round" id="DejaVuSans-61" d="m 34.28125,27.484375 q -10.890625,0 -15.09375,-2.484375 -4.203125,-2.484375 -4.203125,-8.5 0,-4.78125 3.15625,-7.59375 3.15625,-2.796875 8.5625,-2.796875 7.484375,0 12,5.296875 4.515625,5.296875 4.515625,14.078125 v 2 z m 17.921875,3.71875 V 0 H 43.21875 v 8.296875 q -3.078125,-4.96875 -7.671875,-7.34375 -4.59375,-2.375 -11.234375,-2.375 -8.390625,0 -13.359375,4.71875 Q 6,8.015625 6,15.921875 q 0,9.21875 6.171875,13.90625 6.1875,4.6875 18.4375,4.6875 H 43.21875 v 0.890625 q 0,6.203125 -4.078125,9.59375 -4.078125,3.390625 -11.453125,3.390625 -4.6875,0 -9.140625,-1.125 -4.4375,-1.125 -8.53125,-3.375 v 8.3125 q 4.921875,1.90625 9.5625,2.84375 Q 24.21875,56 28.609375,56 q 11.875,0 17.734375,-6.15625 5.859375,-6.140625 5.859375,-18.640625"/><path style="stroke-linecap:butt;stroke-linejoin:round" id="DejaVuSans-65" d="m 56.203125,29.59375 v -4.390625 h -41.3125 q 0.59375,-9.28125 5.59375,-14.140625 5,-4.859375 13.9375,-4.859375 5.171875,0 10.03125,1.265625 4.859375,1.265625 9.65625,3.8125 v -8.5 q -4.84375,-2.046875 -9.921875,-3.125 -5.078125,-1.078125 -10.296875,-1.078125 -13.09375,0 -20.734375,7.609375 -7.640625,7.625 -7.640625,20.625 0,13.421875 7.25,21.296875 Q 20.015625,56 32.328125,56 q 11.03125,0 17.453125,-7.109375 6.421875,-7.09375 6.421875,-19.296875 m -8.984375,2.640625 q -0.09375,7.359375 -4.125,11.75 -4.03125,4.40625 -10.671875,4.40625 -7.515625,0 -12.03125,-4.25 -4.515625,-4.25 -5.203125,-11.96875 z"/><path style="stroke-linecap:butt;stroke-linejoin:round" id="DejaVuSans-6d" d="M 52,44.1875 Q 55.375,50.25 60.0625,53.125 64.75,56 71.09375,56 q 8.546875,0 13.1875,-5.984375 4.640625,-5.96875 4.640625,-17 V 0 h -9.03125 v 32.71875 q 0,7.859375 -2.796875,11.65625 -2.78125,3.8125 -8.484375,3.8125 -6.984375,0 -11.046875,-4.640625 -4.046875,-4.625 -4.046875,-12.640625 V 0 h -9.03125 v 32.71875 q 0,7.90625 -2.78125,11.6875 -2.78125,3.78125 -8.59375,3.78125 -6.890625,0 -10.953125,-4.65625 -4.046875,-4.65625 -4.046875,-12.625 V 0 h -9.03125 v 54.6875 h 9.03125 v -8.5 q 3.078125,5.03125 7.375,7.421875 Q 29.78125,56 35.6875,56 41.65625,56 45.828125,52.96875 50,49.953125 52,44.1875"/><path style="stroke-linecap:butt;stroke-linejoin:round" id="DejaVuSans-6e" d="M 54.890625,33.015625 V 0 H 45.90625 v 32.71875 q 0,7.765625 -3.03125,11.609375 -3.03125,3.859375 -9.078125,3.859375 -7.28125,0 -11.484375,-4.640625 -4.203125,-4.625 -4.203125,-12.640625 V 0 h -9.03125 v 54.6875 h 9.03125 v -8.5 q 3.234375,4.9375 7.59375,7.375 4.375,2.4375 10.09375,2.4375 9.421875,0 14.25,-5.828125 4.84375,-5.828125 4.84375,-17.15625"/><path style="stroke-linecap:butt;stroke-linejoin:round" id="DejaVuSans-73" d="m 44.28125,53.078125 v -8.5 Q 40.484375,46.53125 36.375,47.5 q -4.09375,0.984375 -8.5,0.984375 -6.6875,0 -10.03125,-2.046875 Q 14.5,44.390625 14.5,40.28125 q 0,-3.125 2.390625,-4.90625 2.390625,-1.78125 9.625,-3.390625 l 3.078125,-0.6875 Q 39.15625,29.25 43.1875,25.515625 47.21875,21.78125 47.21875,15.09375 q 0,-7.625 -6.03125,-12.078125 -6.03125,-4.4375 -16.578125,-4.4375 -4.390625,0 -9.15625,0.859375 Q 10.6875,0.296875 5.421875,2 v 9.28125 q 4.984375,-2.59375 9.8125,-3.890625 4.828125,-1.28125 9.578125,-1.28125 6.34375,0 9.75,2.171875 3.421875,2.171875 3.421875,6.125 0,3.65625 -2.46875,5.609375 -2.453125,1.953125 -10.8125,3.765625 l -3.125,0.734375 q -8.34375,1.75 -12.0625,5.390625 -3.703125,3.640625 -3.703125,9.984375 0,7.71875 5.46875,11.90625 Q 16.75,56 26.8125,56 q 4.96875,0 9.359375,-0.734375 4.40625,-0.71875 8.109375,-2.1875"/><path style="stroke-linecap:butt;stroke-linejoin:round" id="DejaVuSans-20"/><path style="stroke-linecap:butt;stroke-linejoin:round" id="DejaVuSans-28" d="M 31,75.875 Q 24.46875,64.65625 21.28125,53.65625 18.109375,42.671875 18.109375,31.390625 18.109375,20.125 21.3125,9.0625 24.515625,-2 31,-13.1875 H 23.1875 Q 15.875,-1.703125 12.234375,9.375 8.59375,20.453125 8.59375,31.390625 q 0,10.890625 3.609375,21.921875 3.625,11.046875 10.984375,22.5625 z"/><path style="stroke-linecap:butt;stroke-linejoin:round" id="DejaVuSans-4d" d="M 9.8125,72.90625 H 24.515625 L 43.109375,23.296875 61.8125,72.90625 H 76.515625 V 0 h -9.625 v 64.015625 l -18.796875,-50 H 38.1875 l -18.796875,50 V 0 H 9.8125 Z"/><path style="stroke-linecap:butt;stroke-linejoin:round" id="DejaVuSans-69" d="M 9.421875,54.6875 H 18.40625 V 0 H 9.421875 Z m 0,21.296875 H 18.40625 V 64.59375 H 9.421875 Z"/><path style="stroke-linecap:butt;stroke-linejoin:round" id="DejaVuSans-6c" d="M 9.421875,75.984375 H 18.40625 V 0 H 9.421875 Z"/><path style="stroke-linecap:butt;stroke-linejoin:round" id="DejaVuSans-6f" d="m 30.609375,48.390625 q -7.21875,0 -11.421875,-5.640625 -4.203125,-5.640625 -4.203125,-15.453125 0,-9.8125 4.171875,-15.453125 4.1875,-5.640625 11.453125,-5.640625 7.1875,0 11.375,5.65625 4.203125,5.671875 4.203125,15.4375 0,9.71875 -4.203125,15.40625 -4.1875,5.6875 -11.375,5.6875 m 0,7.609375 q 11.71875,0 18.40625,-7.625 6.703125,-7.609375 6.703125,-21.078125 0,-13.421875 -6.703125,-21.078125 -6.6875,-7.640625 -18.40625,-7.640625 -11.765625,0 -18.4375,7.640625 -6.65625,7.65625 -6.65625,21.078125 0,13.46875 6.65625,21.078125 Q 18.84375,56 30.609375,56"/><path style="stroke-linecap:butt;stroke-linejoin:round" id="DejaVuSans-29" d="m 8.015625,75.875 h 7.8125 q 7.3125,-11.515625 10.953125,-22.5625 3.640625,-11.03125 3.640625,-21.921875 0,-10.9375 -3.640625,-22.015625 -3.640625,-11.078125 -10.953125,-22.5625 h -7.8125 Q 14.5,-2 17.703125,9.0625 20.90625,20.125 20.90625,31.390625 q 0,11.28125 -3.203125,22.265625 -3.203125,11 -9.6875,22.21875"/></defs><g style="stroke-linecap:butt;stroke-linejoin:round" id="g161" transform="matrix(0.09,0,0,-0.09,62.011841,150.09068)"><use style="stroke-linecap:butt;stroke-linejoin:round" id="use119" width="100%" height="100%" x="0" y="0" xlink:href="#DejaVuSans-53"/><use style="stroke-linecap:butt;stroke-linejoin:round" id="use121" width="100%" height="100%" x="63.477" y="0" xlink:href="#DejaVuSans-74"/><use style="stroke-linecap:butt;stroke-linejoin:round" id="use123" width="100%" height="100%" x="102.686" y="0" xlink:href="#DejaVuSans-61"/><use style="stroke-linecap:butt;stroke-linejoin:round" id="use125" width="100%" height="100%" x="163.965" y="0" xlink:href="#DejaVuSans-74"/><use style="stroke-linecap:butt;stroke-linejoin:round" id="use127" width="100%" height="100%" x="203.174" y="0" xlink:href="#DejaVuSans-65"/><use style="stroke-linecap:butt;stroke-linejoin:round" id="use129" width="100%" height="100%" x="264.697" y="0" xlink:href="#DejaVuSans-6d"/><use style="stroke-linecap:butt;stroke-linejoin:round" id="use131" width="100%" height="100%" x="362.109" y="0" xlink:href="#DejaVuSans-65"/><use style="stroke-linecap:butt;stroke-linejoin:round" id="use133" width="100%" height="100%" x="423.633" y="0" xlink:href="#DejaVuSans-6e"/><use style="stroke-linecap:butt;stroke-linejoin:round" id="use135" width="100%" height="100%" x="487.012" y="0" xlink:href="#DejaVuSans-74"/><use style="stroke-linecap:butt;stroke-linejoin:round" id="use137" width="100%" height="100%" x="526.221" y="0" xlink:href="#DejaVuSans-73"/><use style="stroke-linecap:butt;stroke-linejoin:round" id="use139" width="100%" height="100%" x="578.32" y="0" xlink:href="#DejaVuSans-20"/><use style="stroke-linecap:butt;stroke-linejoin:round" id="use141" width="100%" height="100%" x="610.107" y="0" xlink:href="#DejaVuSans-28"/><use style="stroke-linecap:butt;stroke-linejoin:round" id="use143" width="100%" height="100%" x="649.121" y="0" xlink:href="#DejaVuSans-4d"/><use style="stroke-linecap:butt;stroke-linejoin:round" id="use145" width="100%" height="100%" x="735.4" y="0" xlink:href="#DejaVuSans-69"/><use style="stroke-linecap:butt;stroke-linejoin:round" id="use147" width="100%" height="100%" x="763.184" y="0" xlink:href="#DejaVuSans-6c"/><use style="stroke-linecap:butt;stroke-linejoin:round" id="use149" width="100%" height="100%" x="790.967" y="0" xlink:href="#DejaVuSans-6c"/><use style="stroke-linecap:butt;stroke-linejoin:round" id="use151" width="100%" height="100%" x="818.75" y="0" xlink:href="#DejaVuSans-69"/><use style="stroke-linecap:butt;stroke-linejoin:round" id="use153" width="100%" height="100%" x="846.533" y="0" xlink:href="#DejaVuSans-6f"/><use style="stroke-linecap:butt;stroke-linejoin:round" id="use155" width="100%" height="100%" x="907.715" y="0" xlink:href="#DejaVuSans-6e"/><use style="stroke-linecap:butt;stroke-linejoin:round" id="use157" width="100%" height="100%" x="971.094" y="0" xlink:href="#DejaVuSans-73"/><use style="stroke-linecap:butt;stroke-linejoin:round" id="use159" width="100%" height="100%" x="1023.193" y="0" xlink:href="#DejaVuSans-29"/></g></g></g><g style="stroke-linecap:butt;stroke-linejoin:round" id="matplotlib.axis_2"><g style="stroke-linecap:butt;stroke-linejoin:round" id="ytick_1"><g style="stroke-linecap:butt;stroke-linejoin:round" id="line2d_11"><path id="path165" d="M 20.530279,125.09391 H 199.09028" clip-path="url(#pe44d299347)" style="fill:none;stroke:#000;stroke-width:.2;stroke-linecap:butt;stroke-linejoin:round;stroke-dasharray:.4,3.2;stroke-dashoffset:0"/></g><g style="stroke-linecap:butt;stroke-linejoin:round" id="line2d_12"><defs id="defs169"><path style="stroke:#000;stroke-width:.5;stroke-linecap:butt;stroke-linejoin:round" id="m4d42881331" d="M 0,0 H -3.5"/></defs><g style="stroke-linecap:butt;stroke-linejoin:round" id="g173"><use id="use171" width="100%" height="100%" x="20.53" y="125.094" xlink:href="#m4d42881331" style="stroke:#000;stroke-width:.5;stroke-linecap:butt;stroke-linejoin:round"/></g></g><g style="stroke-linecap:butt;stroke-linejoin:round" id="text_7"><g style="stroke-linecap:butt;stroke-linejoin:round" id="g178" transform="matrix(0.07497,0,0,-0.07497,11.510313,127.94219)"><use style="stroke-linecap:butt;stroke-linejoin:round" id="use176" width="100%" height="100%" x="0" y="0" xlink:href="#DejaVuSans-30"/></g></g></g><g style="stroke-linecap:butt;stroke-linejoin:round" id="ytick_2"><g style="stroke-linecap:butt;stroke-linejoin:round" id="line2d_13"><path id="path182" d="M 20.530279,101.15209 H 199.09028" clip-path="url(#pe44d299347)" style="fill:none;stroke:#000;stroke-width:.2;stroke-linecap:butt;stroke-linejoin:round;stroke-dasharray:.4,3.2;stroke-dashoffset:0"/></g><g style="stroke-linecap:butt;stroke-linejoin:round" id="line2d_14"><g style="stroke-linecap:butt;stroke-linejoin:round" id="g187"><use id="use185" width="100%" height="100%" x="20.53" y="101.152" xlink:href="#m4d42881331" style="stroke:#000;stroke-width:.5;stroke-linecap:butt;stroke-linejoin:round"/></g></g><g style="stroke-linecap:butt;stroke-linejoin:round" id="text_8"><g style="stroke-linecap:butt;stroke-linejoin:round" id="g192" transform="matrix(0.07497,0,0,-0.07497,11.510313,104.00036)"><use style="stroke-linecap:butt;stroke-linejoin:round" id="use190" width="100%" height="100%" x="0" y="0" xlink:href="#DejaVuSans-31"/></g></g></g><g style="stroke-linecap:butt;stroke-linejoin:round" id="ytick_3"><g style="stroke-linecap:butt;stroke-linejoin:round" id="line2d_15"><path id="path196" d="M 20.530279,77.210265 H 199.09028" clip-path="url(#pe44d299347)" style="fill:none;stroke:#000;stroke-width:.2;stroke-linecap:butt;stroke-linejoin:round;stroke-dasharray:.4,3.2;stroke-dashoffset:0"/></g><g style="stroke-linecap:butt;stroke-linejoin:round" id="line2d_16"><g style="stroke-linecap:butt;stroke-linejoin:round" id="g201"><use id="use199" width="100%" height="100%" x="20.53" y="77.21" xlink:href="#m4d42881331" style="stroke:#000;stroke-width:.5;stroke-linecap:butt;stroke-linejoin:round"/></g></g><g style="stroke-linecap:butt;stroke-linejoin:round" id="text_9"><g style="stroke-linecap:butt;stroke-linejoin:round" id="g206" transform="matrix(0.07497,0,0,-0.07497,11.510313,80.058539)"><use style="stroke-linecap:butt;stroke-linejoin:round" id="use204" width="100%" height="100%" x="0" y="0" xlink:href="#DejaVuSans-32"/></g></g></g><g style="stroke-linecap:butt;stroke-linejoin:round" id="ytick_4"><g style="stroke-linecap:butt;stroke-linejoin:round" id="line2d_17"><path id="path210" d="M 20.530279,53.268442 H 199.09028" clip-path="url(#pe44d299347)" style="fill:none;stroke:#000;stroke-width:.2;stroke-linecap:butt;stroke-linejoin:round;stroke-dasharray:.4,3.2;stroke-dashoffset:0"/></g><g style="stroke-linecap:butt;stroke-linejoin:round" id="line2d_18"><g style="stroke-linecap:butt;stroke-linejoin:round" id="g215"><use id="use213" width="100%" height="100%" x="20.53" y="53.268" xlink:href="#m4d42881331" style="stroke:#000;stroke-width:.5;stroke-linecap:butt;stroke-linejoin:round"/></g></g><g style="stroke-linecap:butt;stroke-linejoin:round" id="text_10"><defs id="defs219"><path style="stroke-linecap:butt;stroke-linejoin:round" id="DejaVuSans-33" d="M 40.578125,39.3125 Q 47.65625,37.796875 51.625,33 q 3.984375,-4.78125 3.984375,-11.8125 0,-10.78125 -7.421875,-16.703125 -7.421875,-5.90625 -21.09375,-5.90625 -4.578125,0 -9.4375,0.90625 -4.859375,0.90625 -10.03125,2.71875 v 9.515625 q 4.09375,-2.390625 8.96875,-3.609375 4.890625,-1.21875 10.21875,-1.21875 9.265625,0 14.125,3.65625 4.859375,3.65625 4.859375,10.640625 0,6.453125 -4.515625,10.078125 -4.515625,3.640625 -12.5625,3.640625 h -8.5 v 8.109375 h 8.890625 q 7.265625,0 11.125,2.90625 3.859375,2.90625 3.859375,8.375 0,5.609375 -3.984375,8.609375 -3.96875,3.015625 -11.390625,3.015625 -4.0625,0 -8.703125,-0.890625 Q 15.375,64.15625 9.8125,62.3125 v 8.78125 q 5.625,1.5625 10.53125,2.34375 4.90625,0.78125 9.25,0.78125 11.234375,0 17.765625,-5.109375 6.546875,-5.09375 6.546875,-13.78125 0,-6.0625 -3.46875,-10.234375 -3.46875,-4.171875 -9.859375,-5.78125"/></defs><g style="stroke-linecap:butt;stroke-linejoin:round" id="g223" transform="matrix(0.07497,0,0,-0.07497,11.510313,56.116716)"><use style="stroke-linecap:butt;stroke-linejoin:round" id="use221" width="100%" height="100%" x="0" y="0" xlink:href="#DejaVuSans-33"/></g></g></g><g style="stroke-linecap:butt;stroke-linejoin:round" id="ytick_5"><g style="stroke-linecap:butt;stroke-linejoin:round" id="line2d_19"><path id="path227" d="M 20.530279,29.326618 H 199.09028" clip-path="url(#pe44d299347)" style="fill:none;stroke:#000;stroke-width:.2;stroke-linecap:butt;stroke-linejoin:round;stroke-dasharray:.4,3.2;stroke-dashoffset:0"/></g><g style="stroke-linecap:butt;stroke-linejoin:round" id="line2d_20"><g style="stroke-linecap:butt;stroke-linejoin:round" id="g232"><use id="use230" width="100%" height="100%" x="20.53" y="29.327" xlink:href="#m4d42881331" style="stroke:#000;stroke-width:.5;stroke-linecap:butt;stroke-linejoin:round"/></g></g><g style="stroke-linecap:butt;stroke-linejoin:round" id="text_11"><g style="stroke-linecap:butt;stroke-linejoin:round" id="g237" transform="matrix(0.07497,0,0,-0.07497,11.510313,32.174893)"><use style="stroke-linecap:butt;stroke-linejoin:round" id="use235" width="100%" height="100%" x="0" y="0" xlink:href="#DejaVuSans-34"/></g></g></g><g style="stroke-linecap:butt;stroke-linejoin:round" id="ytick_6"><g style="stroke-linecap:butt;stroke-linejoin:round" id="line2d_21"><path id="path241" d="M 20.530279,5.384795 H 199.09028" clip-path="url(#pe44d299347)" style="fill:none;stroke:#000;stroke-width:.2;stroke-linecap:butt;stroke-linejoin:round;stroke-dasharray:.4,3.2;stroke-dashoffset:0"/></g><g style="stroke-linecap:butt;stroke-linejoin:round" id="line2d_22"><g style="stroke-linecap:butt;stroke-linejoin:round" id="g246"><use id="use244" width="100%" height="100%" x="20.53" y="5.385" xlink:href="#m4d42881331" style="stroke:#000;stroke-width:.5;stroke-linecap:butt;stroke-linejoin:round"/></g></g><g style="stroke-linecap:butt;stroke-linejoin:round" id="text_12"><defs id="defs250"><path style="stroke-linecap:butt;stroke-linejoin:round" id="DejaVuSans-35" d="m 10.796875,72.90625 h 38.71875 v -8.3125 h -29.6875 V 46.734375 q 2.140625,0.734375 4.28125,1.09375 2.15625,0.359375 4.3125,0.359375 Q 40.625,48.1875 47.75,41.5 54.890625,34.8125 54.890625,23.390625 54.890625,11.625 47.5625,5.09375 40.234375,-1.421875 26.90625,-1.421875 q -4.59375,0 -9.359375,0.78125 -4.75,0.78125 -9.828125,2.34375 V 11.625 q 4.390625,-2.390625 9.078125,-3.5625 4.6875,-1.171875 9.90625,-1.171875 8.453125,0 13.375,4.4375 4.9375,4.4375 4.9375,12.0625 0,7.609375 -4.9375,12.046875 -4.921875,4.453125 -13.375,4.453125 -3.953125,0 -7.890625,-0.875 -3.921875,-0.875 -8.015625,-2.734375 z"/></defs><g style="stroke-linecap:butt;stroke-linejoin:round" id="g254" transform="matrix(0.07497,0,0,-0.07497,11.510313,8.233069)"><use style="stroke-linecap:butt;stroke-linejoin:round" id="use252" width="100%" height="100%" x="0" y="0" xlink:href="#DejaVuSans-35"/></g></g></g><g style="stroke-linecap:butt;stroke-linejoin:round" id="text_13"><defs id="defs262"><path style="stroke-linecap:butt;stroke-linejoin:round" id="DejaVuSans-52" d="m 44.390625,34.1875 q 3.171875,-1.078125 6.171875,-4.59375 3,-3.515625 6.03125,-9.671875 L 66.609375,0 H 56 l -9.3125,18.703125 q -3.625,7.328125 -7.015625,9.71875 -3.390625,2.390625 -9.25,2.390625 h -10.75 V 0 H 9.8125 v 72.90625 h 22.265625 q 12.5,0 18.65625,-5.234375 6.15625,-5.21875 6.15625,-15.765625 0,-6.890625 -3.203125,-11.4375 -3.203125,-4.53125 -9.296875,-6.28125 m -24.71875,30.609375 v -25.875 h 12.40625 q 7.125,0 10.765625,3.296875 3.640625,3.296875 3.640625,9.6875 0,6.390625 -3.640625,9.640625 -3.640625,3.25 -10.765625,3.25 z"/><path style="stroke-linecap:butt;stroke-linejoin:round" id="DejaVuSans-64" d="m 45.40625,46.390625 v 29.59375 h 8.984375 V 0 H 45.40625 v 8.203125 q -2.828125,-4.875 -7.15625,-7.25 -4.3125,-2.375 -10.375,-2.375 -9.90625,0 -16.140625,7.90625 -6.21875,7.921875 -6.21875,20.8125 0,12.890625 6.21875,20.796875 Q 17.96875,56 27.875,56 q 6.0625,0 10.375,-2.375 4.328125,-2.359375 7.15625,-7.234375 M 14.796875,27.296875 q 0,-9.90625 4.078125,-15.546875 4.078125,-5.640625 11.203125,-5.640625 7.125,0 11.21875,5.640625 4.109375,5.640625 4.109375,15.546875 0,9.90625 -4.109375,15.546875 -4.09375,5.640625 -11.21875,5.640625 -7.125,0 -11.203125,-5.640625 -4.078125,-5.640625 -4.078125,-15.546875"/><path style="stroke-linecap:butt;stroke-linejoin:round" id="DejaVuSans-42" d="M 19.671875,34.8125 V 8.109375 H 35.5 q 7.953125,0 11.78125,3.296875 3.84375,3.296875 3.84375,10.078125 0,6.84375 -3.84375,10.078125 -3.828125,3.25 -11.78125,3.25 z m 0,29.984375 V 42.828125 H 34.28125 q 7.21875,0 10.75,2.703125 3.546875,2.71875 3.546875,8.28125 0,5.515625 -3.546875,8.25 -3.53125,2.734375 -10.75,2.734375 z M 9.8125,72.90625 h 25.203125 q 11.28125,0 17.375,-4.6875 Q 58.5,63.53125 58.5,54.890625 58.5,48.1875 55.375,44.234375 52.25,40.28125 46.1875,39.3125 53.46875,37.75 57.5,32.78125 q 4.03125,-4.953125 4.03125,-12.375 0,-9.765625 -6.640625,-15.09375 Q 48.25,0 35.984375,0 H 9.8125 Z"/><path style="stroke-linecap:butt;stroke-linejoin:round" id="DejaVuSans-79" d="M 32.171875,-5.078125 Q 28.375,-14.84375 24.75,-17.8125 q -3.609375,-2.984375 -9.65625,-2.984375 h -7.1875 v 7.515625 h 5.28125 q 3.703125,0 5.75,1.765625 2.0625,1.75 4.546875,8.296875 L 25.09375,0.875 2.984375,54.6875 H 12.5 L 29.59375,11.921875 46.6875,54.6875 h 9.515625 z"/></defs><g style="stroke-linecap:butt;stroke-linejoin:round" id="g314" transform="matrix(0,-0.09,-0.09,0,8.638594,122.78961)"><use style="stroke-linecap:butt;stroke-linejoin:round" id="use264" width="100%" height="100%" x="0" y="0" xlink:href="#DejaVuSans-52"/><use style="stroke-linecap:butt;stroke-linejoin:round" id="use266" width="100%" height="100%" x="69.42" y="0" xlink:href="#DejaVuSans-65"/><use style="stroke-linecap:butt;stroke-linejoin:round" id="use268" width="100%" height="100%" x="130.943" y="0" xlink:href="#DejaVuSans-73"/><use style="stroke-linecap:butt;stroke-linejoin:round" id="use270" width="100%" height="100%" x="183.043" y="0" xlink:href="#DejaVuSans-69"/><use style="stroke-linecap:butt;stroke-linejoin:round" id="use272" width="100%" height="100%" x="210.826" y="0" xlink:href="#DejaVuSans-64"/><use style="stroke-linecap:butt;stroke-linejoin:round" id="use274" width="100%" height="100%" x="274.303" y="0" xlink:href="#DejaVuSans-65"/><use style="stroke-linecap:butt;stroke-linejoin:round" id="use276" width="100%" height="100%" x="335.826" y="0" xlink:href="#DejaVuSans-6e"/><use style="stroke-linecap:butt;stroke-linejoin:round" id="use278" width="100%" height="100%" x="399.205" y="0" xlink:href="#DejaVuSans-74"/><use style="stroke-linecap:butt;stroke-linejoin:round" id="use280" width="100%" height="100%" x="438.414" y="0" xlink:href="#DejaVuSans-20"/><use style="stroke-linecap:butt;stroke-linejoin:round" id="use282" width="100%" height="100%" x="470.201" y="0" xlink:href="#DejaVuSans-42"/><use style="stroke-linecap:butt;stroke-linejoin:round" id="use284" width="100%" height="100%" x="538.805" y="0" xlink:href="#DejaVuSans-79"/><use style="stroke-linecap:butt;stroke-linejoin:round" id="use286" width="100%" height="100%" x="597.984" y="0" xlink:href="#DejaVuSans-74"/><use style="stroke-linecap:butt;stroke-linejoin:round" id="use288" width="100%" height="100%" x="637.193" y="0" xlink:href="#DejaVuSans-65"/><use style="stroke-linecap:butt;stroke-linejoin:round" id="use290" width="100%" height="100%" x="698.717" y="0" xlink:href="#DejaVuSans-73"/><use style="stroke-linecap:butt;stroke-linejoin:round" id="use292" width="100%" height="100%" x="750.816" y="0" xlink:href="#DejaVuSans-20"/><use style="stroke-linecap:butt;stroke-linejoin:round" id="use294" width="100%" height="100%" x="782.604" y="0" xlink:href="#DejaVuSans-28"/><use style="stroke-linecap:butt;stroke-linejoin:round" id="use296" width="100%" height="100%" x="821.617" y="0" xlink:href="#DejaVuSans-42"/><use style="stroke-linecap:butt;stroke-linejoin:round" id="use298" width="100%" height="100%" x="890.221" y="0" xlink:href="#DejaVuSans-69"/><use style="stroke-linecap:butt;stroke-linejoin:round" id="use300" width="100%" height="100%" x="918.004" y="0" xlink:href="#DejaVuSans-6c"/><use style="stroke-linecap:butt;stroke-linejoin:round" id="use302" width="100%" height="100%" x="945.787" y="0" xlink:href="#DejaVuSans-6c"/><use style="stroke-linecap:butt;stroke-linejoin:round" id="use304" width="100%" height="100%" x="973.57" y="0" xlink:href="#DejaVuSans-69"/><use style="stroke-linecap:butt;stroke-linejoin:round" id="use306" width="100%" height="100%" x="1001.354" y="0" xlink:href="#DejaVuSans-6f"/><use style="stroke-linecap:butt;stroke-linejoin:round" id="use308" width="100%" height="100%" x="1062.535" y="0" xlink:href="#DejaVuSans-6e"/><use style="stroke-linecap:butt;stroke-linejoin:round" id="use310" width="100%" height="100%" x="1125.914" y="0" xlink:href="#DejaVuSans-73"/><use style="stroke-linecap:butt;stroke-linejoin:round" id="use312" width="100%" height="100%" x="1178.014" y="0" xlink:href="#DejaVuSans-29"/></g></g></g><g style="stroke-linecap:butt;stroke-linejoin:round" id="line2d_23"><path id="path318" d="m 28.646642,125.0437 18.036364,-0.002 H 64.71937 82.755733 l 18.036367,-0.003 18.03636,0.004 18.03636,0.001 18.03637,-0.005 18.03636,0.004 18.03636,-6.9e-4" clip-path="url(#pe44d299347)" style="fill:none;stroke:#b20000;stroke-linecap:square;stroke-linejoin:round"/><defs id="defs321"><path style="stroke:#b20000;stroke-width:.5;stroke-linecap:butt;stroke-linejoin:round" id="m640577d0fe" d="M 0,1.75 C 0.464105,1.75 0.909265,1.565609 1.237437,1.237437 1.565609,0.909265 1.75,0.464105 1.75,0 1.75,-0.464105 1.565609,-0.909265 1.237437,-1.237437 0.909265,-1.565609 0.464105,-1.75 0,-1.75 c -0.464105,0 -0.909265,0.184391 -1.237437,0.512563 C -1.565609,-0.909265 -1.75,-0.464105 -1.75,0 c 0,0.464105 0.184391,0.909265 0.512563,1.237437 C -0.909265,1.565609 -0.464105,1.75 0,1.75 Z"/></defs><g style="stroke-linecap:butt;stroke-linejoin:round" id="g343" clip-path="url(#pe44d299347)"><use id="use323" width="100%" height="100%" x="28.647" y="125.044" xlink:href="#m640577d0fe" style="fill:#b20000;stroke:#b20000;stroke-width:.5;stroke-linecap:butt;stroke-linejoin:round"/><use id="use325" width="100%" height="100%" x="46.683" y="125.042" xlink:href="#m640577d0fe" style="fill:#b20000;stroke:#b20000;stroke-width:.5;stroke-linecap:butt;stroke-linejoin:round"/><use id="use327" width="100%" height="100%" x="64.719" y="125.042" xlink:href="#m640577d0fe" style="fill:#b20000;stroke:#b20000;stroke-width:.5;stroke-linecap:butt;stroke-linejoin:round"/><use id="use329" width="100%" height="100%" x="82.756" y="125.042" xlink:href="#m640577d0fe" style="fill:#b20000;stroke:#b20000;stroke-width:.5;stroke-linecap:butt;stroke-linejoin:round"/><use id="use331" width="100%" height="100%" x="100.792" y="125.039" xlink:href="#m640577d0fe" style="fill:#b20000;stroke:#b20000;stroke-width:.5;stroke-linecap:butt;stroke-linejoin:round"/><use id="use333" width="100%" height="100%" x="118.828" y="125.043" xlink:href="#m640577d0fe" style="fill:#b20000;stroke:#b20000;stroke-width:.5;stroke-linecap:butt;stroke-linejoin:round"/><use id="use335" width="100%" height="100%" x="136.865" y="125.044" xlink:href="#m640577d0fe" style="fill:#b20000;stroke:#b20000;stroke-width:.5;stroke-linecap:butt;stroke-linejoin:round"/><use id="use337" width="100%" height="100%" x="154.901" y="125.039" xlink:href="#m640577d0fe" style="fill:#b20000;stroke:#b20000;stroke-width:.5;stroke-linecap:butt;stroke-linejoin:round"/><use id="use339" width="100%" height="100%" x="172.938" y="125.043" xlink:href="#m640577d0fe" style="fill:#b20000;stroke:#b20000;stroke-width:.5;stroke-linecap:butt;stroke-linejoin:round"/><use id="use341" width="100%" height="100%" x="190.974" y="125.043" xlink:href="#m640577d0fe" style="fill:#b20000;stroke:#b20000;stroke-width:.5;stroke-linecap:butt;stroke-linejoin:round"/></g></g><g style="stroke-linecap:butt;stroke-linejoin:round" id="line2d_24"><path id="path346" d="M 28.646642,113.26984 46.683006,101.78615 64.71937,90.323832 82.755733,78.90663 100.7921,67.55121 118.82846,56.198045 136.86482,44.8793 154.90119,33.569774 172.93755,22.284373 190.97391,11.002109" clip-path="url(#pe44d299347)" style="fill:none;stroke:#00b200;stroke-linecap:butt;stroke-linejoin:round;stroke-dasharray:2.5,1;stroke-dashoffset:0"/><defs id="defs349"><path style="stroke:#00b200;stroke-width:.5;stroke-linecap:butt;stroke-linejoin:miter" id="m1a8f2866a8" d="m -1.75,1.75 h 3.5 v -3.5 h -3.5 z"/></defs><g style="stroke-linecap:butt;stroke-linejoin:round" id="g371" clip-path="url(#pe44d299347)"><use id="use351" width="100%" height="100%" x="28.647" y="113.27" xlink:href="#m1a8f2866a8" style="fill:#00b200;stroke:#00b200;stroke-width:.5;stroke-linecap:butt;stroke-linejoin:miter"/><use id="use353" width="100%" height="100%" x="46.683" y="101.786" xlink:href="#m1a8f2866a8" style="fill:#00b200;stroke:#00b200;stroke-width:.5;stroke-linecap:butt;stroke-linejoin:miter"/><use id="use355" width="100%" height="100%" x="64.719" y="90.324" xlink:href="#m1a8f2866a8" style="fill:#00b200;stroke:#00b200;stroke-width:.5;stroke-linecap:butt;stroke-linejoin:miter"/><use id="use357" width="100%" height="100%" x="82.756" y="78.907" xlink:href="#m1a8f2866a8" style="fill:#00b200;stroke:#00b200;stroke-width:.5;stroke-linecap:butt;stroke-linejoin:miter"/><use id="use359" width="100%" height="100%" x="100.792" y="67.551" xlink:href="#m1a8f2866a8" style="fill:#00b200;stroke:#00b200;stroke-width:.5;stroke-linecap:butt;stroke-linejoin:miter"/><use id="use361" width="100%" height="100%" x="118.828" y="56.198" xlink:href="#m1a8f2866a8" style="fill:#00b200;stroke:#00b200;stroke-width:.5;stroke-linecap:butt;stroke-linejoin:miter"/><use id="use363" width="100%" height="100%" x="136.865" y="44.879" xlink:href="#m1a8f2866a8" style="fill:#00b200;stroke:#00b200;stroke-width:.5;stroke-linecap:butt;stroke-linejoin:miter"/><use id="use365" width="100%" height="100%" x="154.901" y="33.57" xlink:href="#m1a8f2866a8" style="fill:#00b200;stroke:#00b200;stroke-width:.5;stroke-linecap:butt;stroke-linejoin:miter"/><use id="use367" width="100%" height="100%" x="172.938" y="22.284" xlink:href="#m1a8f2866a8" style="fill:#00b200;stroke:#00b200;stroke-width:.5;stroke-linecap:butt;stroke-linejoin:miter"/><use id="use369" width="100%" height="100%" x="190.974" y="11.002" xlink:href="#m1a8f2866a8" style="fill:#00b200;stroke:#00b200;stroke-width:.5;stroke-linecap:butt;stroke-linejoin:miter"/></g></g><g style="stroke-linecap:butt;stroke-linejoin:round" id="line2d_25"><path id="path374" d="M 28.646642,108.77911 46.683006,96.058617 64.71937,88.766549 82.755733,88.401058 100.7921,88.7386 l 18.03636,-0.851014 18.03636,0.21241 18.03637,-0.357841 18.03636,0.290372 18.03636,0.541519" clip-path="url(#pe44d299347)" style="fill:none;stroke:#0000b2;stroke-linecap:butt;stroke-linejoin:round;stroke-dasharray:1,1;stroke-dashoffset:0"/><defs id="defs377"><path style="stroke:#0000b2;stroke-width:.5;stroke-linecap:butt;stroke-linejoin:miter" id="mf0ae008de9" d="m 0,1.75 1.75,-3.5 h -3.5 z"/></defs><g style="stroke-linecap:butt;stroke-linejoin:round" id="g399" clip-path="url(#pe44d299347)"><use id="use379" width="100%" height="100%" x="28.647" y="108.779" xlink:href="#mf0ae008de9" style="fill:#0000b2;stroke:#0000b2;stroke-width:.5;stroke-linecap:butt;stroke-linejoin:miter"/><use id="use381" width="100%" height="100%" x="46.683" y="96.059" xlink:href="#mf0ae008de9" style="fill:#0000b2;stroke:#0000b2;stroke-width:.5;stroke-linecap:butt;stroke-linejoin:miter"/><use id="use383" width="100%" height="100%" x="64.719" y="88.767" xlink:href="#mf0ae008de9" style="fill:#0000b2;stroke:#0000b2;stroke-width:.5;stroke-linecap:butt;stroke-linejoin:miter"/><use id="use385" width="100%" height="100%" x="82.756" y="88.401" xlink:href="#mf0ae008de9" style="fill:#0000b2;stroke:#0000b2;stroke-width:.5;stroke-linecap:butt;stroke-linejoin:miter"/><use id="use387" width="100%" height="100%" x="100.792" y="88.739" xlink:href="#mf0ae008de9" style="fill:#0000b2;stroke:#0000b2;stroke-width:.5;stroke-linecap:butt;stroke-linejoin:miter"/><use id="use389" width="100%" height="100%" x="118.828" y="87.888" xlink:href="#mf0ae008de9" style="fill:#0000b2;stroke:#0000b2;stroke-width:.5;stroke-linecap:butt;stroke-linejoin:miter"/><use id="use391" width="100%" height="100%" x="136.865" y="88.1" xlink:href="#mf0ae008de9" style="fill:#0000b2;stroke:#0000b2;stroke-width:.5;stroke-linecap:butt;stroke-linejoin:miter"/><use id="use393" width="100%" height="100%" x="154.901" y="87.742" xlink:href="#mf0ae008de9" style="fill:#0000b2;stroke:#0000b2;stroke-width:.5;stroke-linecap:butt;stroke-linejoin:miter"/><use id="use395" width="100%" height="100%" x="172.938" y="88.033" xlink:href="#mf0ae008de9" style="fill:#0000b2;stroke:#0000b2;stroke-width:.5;stroke-linecap:butt;stroke-linejoin:miter"/><use id="use397" width="100%" height="100%" x="190.974" y="88.574" xlink:href="#mf0ae008de9" style="fill:#0000b2;stroke:#0000b2;stroke-width:.5;stroke-linecap:butt;stroke-linejoin:miter"/></g></g><g style="stroke-linecap:butt;stroke-linejoin:round" id="patch_3"><path id="path402" d="M 20.530279,130.7464 V 5.3" style="fill:none;stroke:#000;stroke-width:.5;stroke-linecap:square;stroke-linejoin:miter"/></g><g style="stroke-linecap:butt;stroke-linejoin:round" id="patch_4"><path id="path405" d="M 199.09028,130.7464 V 5.3" style="fill:none;stroke:#000;stroke-width:.5;stroke-linecap:square;stroke-linejoin:miter"/></g><g style="stroke-linecap:butt;stroke-linejoin:round" id="patch_5"><path id="path408" d="M 20.530279,130.7464 H 199.09028" style="fill:none;stroke:#000;stroke-width:.5;stroke-linecap:square;stroke-linejoin:miter"/></g><g style="stroke-linecap:butt;stroke-linejoin:round" id="patch_6"><path id="path411" d="M 20.530279,5.3 H 199.09028" style="fill:none;stroke:#000;stroke-width:.5;stroke-linecap:square;stroke-linejoin:miter"/></g><g style="stroke-linecap:butt;stroke-linejoin:round" id="legend_1"><g style="stroke-linecap:butt;stroke-linejoin:round" id="patch_7"><path id="path414" d="m 24.278779,33.439521 h 43.39123 q 1.4994,0 1.4994,-1.4994 V 9.0485 q 0,-1.4994 -1.4994,-1.4994 h -43.39123 q -1.4994,0 -1.4994,1.4994 v 22.891621 q 0,1.4994 1.4994,1.4994 z" style="opacity:.9;fill:#fff;stroke:#ccc;stroke-width:.5;stroke-linecap:butt;stroke-linejoin:miter"/></g><g style="stroke-linecap:butt;stroke-linejoin:round" id="line2d_26"><path id="path417" d="m 24.278779,12.121099 h 14.994" style="fill:none;stroke:#b20000;stroke-linecap:square;stroke-linejoin:round"/></g><g style="stroke-linecap:butt;stroke-linejoin:round" id="line2d_27"><g style="stroke-linecap:butt;stroke-linejoin:round" id="g422"><use id="use420" width="100%" height="100%" x="31.776" y="12.121" xlink:href="#m640577d0fe" style="fill:#b20000;stroke:#b20000;stroke-width:.5;stroke-linecap:butt;stroke-linejoin:round"/></g></g><g style="stroke-linecap:butt;stroke-linejoin:round" id="text_14"><defs id="defs426"><path style="stroke-linecap:butt;stroke-linejoin:round" id="DejaVuSans-72" d="m 41.109375,46.296875 q -1.515625,0.875 -3.296875,1.28125 Q 36.03125,48 33.890625,48 26.265625,48 22.1875,43.046875 18.109375,38.09375 18.109375,28.8125 V 0 h -9.03125 v 54.6875 h 9.03125 v -8.5 q 2.84375,4.984375 7.375,7.390625 Q 30.03125,56 36.53125,56 q 0.921875,0 2.046875,-0.125 1.125,-0.109375 2.484375,-0.359375 z"/></defs><g style="stroke-linecap:butt;stroke-linejoin:round" id="g440" transform="matrix(0.07497,0,0,-0.07497,40.397329,14.745049)"><use style="stroke-linecap:butt;stroke-linejoin:round" id="use428" width="100%" height="100%" x="0" y="0" xlink:href="#DejaVuSans-20"/><use style="stroke-linecap:butt;stroke-linejoin:round" id="use430" width="100%" height="100%" x="31.787" y="0" xlink:href="#DejaVuSans-73"/><use style="stroke-linecap:butt;stroke-linejoin:round" id="use432" width="100%" height="100%" x="83.887" y="0" xlink:href="#DejaVuSans-65"/><use style="stroke-linecap:butt;stroke-linejoin:round" id="use434" width="100%" height="100%" x="145.41" y="0" xlink:href="#DejaVuSans-72"/><use style="stroke-linecap:butt;stroke-linejoin:round" id="use436" width="100%" height="100%" x="186.508" y="0" xlink:href="#DejaVuSans-64"/><use style="stroke-linecap:butt;stroke-linejoin:round" id="use438" width="100%" height="100%" x="249.984" y="0" xlink:href="#DejaVuSans-69"/></g></g><g style="stroke-linecap:butt;stroke-linejoin:round" id="line2d_28"><path id="path443" d="m 24.278779,19.939064 h 14.994" style="fill:none;stroke:#00b200;stroke-linecap:butt;stroke-linejoin:round;stroke-dasharray:2.5,1;stroke-dashoffset:0"/></g><g style="stroke-linecap:butt;stroke-linejoin:round" id="line2d_29"><g style="stroke-linecap:butt;stroke-linejoin:round" id="g448"><use id="use446" width="100%" height="100%" x="31.776" y="19.939" xlink:href="#m1a8f2866a8" style="fill:#00b200;stroke:#00b200;stroke-width:.5;stroke-linecap:butt;stroke-linejoin:miter"/></g></g><g style="stroke-linecap:butt;stroke-linejoin:round" id="text_15"><defs id="defs452"><path style="stroke-linecap:butt;stroke-linejoin:round" id="DejaVuSans-70" d="m 18.109375,8.203125 v -29 H 9.078125 V 54.6875 h 9.03125 v -8.296875 q 2.84375,4.875 7.15625,7.234375 Q 29.59375,56 35.59375,56 q 9.96875,0 16.1875,-7.90625 6.234375,-7.90625 6.234375,-20.796875 0,-12.890625 -6.234375,-20.8125 -6.21875,-7.90625 -16.1875,-7.90625 -6,0 -10.328125,2.375 -4.3125,2.375 -7.15625,7.25 M 48.6875,27.296875 q 0,9.90625 -4.078125,15.546875 -4.078125,5.640625 -11.203125,5.640625 -7.140625,0 -11.21875,-5.640625 -4.078125,-5.640625 -4.078125,-15.546875 0,-9.90625 4.078125,-15.546875 4.078125,-5.640625 11.21875,-5.640625 7.125,0 11.203125,5.640625 4.078125,5.640625 4.078125,15.546875"/></defs><g style="stroke-linecap:butt;stroke-linejoin:round" id="g468" transform="matrix(0.07497,0,0,-0.07497,40.397329,22.563014)"><use style="stroke-linecap:butt;stroke-linejoin:round" id="use454" width="100%" height="100%" x="0" y="0" xlink:href="#DejaVuSans-20"/><use style="stroke-linecap:butt;stroke-linejoin:round" id="use456" width="100%" height="100%" x="31.787" y="0" xlink:href="#DejaVuSans-72"/><use style="stroke-linecap:butt;stroke-linejoin:round" id="use458" width="100%" height="100%" x="72.9" y="0" xlink:href="#DejaVuSans-61"/><use style="stroke-linecap:butt;stroke-linejoin:round" id="use460" width="100%" height="100%" x="134.18" y="0" xlink:href="#DejaVuSans-70"/><use style="stroke-linecap:butt;stroke-linejoin:round" id="use462" width="100%" height="100%" x="197.656" y="0" xlink:href="#DejaVuSans-70"/><use style="stroke-linecap:butt;stroke-linejoin:round" id="use464" width="100%" height="100%" x="261.133" y="0" xlink:href="#DejaVuSans-65"/><use style="stroke-linecap:butt;stroke-linejoin:round" id="use466" width="100%" height="100%" x="322.656" y="0" xlink:href="#DejaVuSans-72"/></g></g><g style="stroke-linecap:butt;stroke-linejoin:round" id="line2d_30"><path id="path471" d="m 24.278779,27.757029 h 14.994" style="fill:none;stroke:#0000b2;stroke-linecap:butt;stroke-linejoin:round;stroke-dasharray:1,1;stroke-dashoffset:0"/></g><g style="stroke-linecap:butt;stroke-linejoin:round" id="line2d_31"><g style="stroke-linecap:butt;stroke-linejoin:round" id="g476"><use id="use474" width="100%" height="100%" x="31.776" y="27.757" xlink:href="#mf0ae008de9" style="fill:#0000b2;stroke:#0000b2;stroke-width:.5;stroke-linecap:butt;stroke-linejoin:miter"/></g></g><g style="stroke-linecap:butt;stroke-linejoin:round" id="text_16"><g style="stroke-linecap:butt;stroke-linejoin:round" id="g489" transform="matrix(0.07497,0,0,-0.07497,40.397329,30.380979)"><use style="stroke-linecap:butt;stroke-linejoin:round" id="use479" width="100%" height="100%" x="0" y="0" xlink:href="#DejaVuSans-20"/><use style="stroke-linecap:butt;stroke-linejoin:round" id="use481" width="100%" height="100%" x="31.787" y="0" xlink:href="#DejaVuSans-72"/><use style="stroke-linecap:butt;stroke-linejoin:round" id="use483" width="100%" height="100%" x="72.9" y="0" xlink:href="#DejaVuSans-69"/><use style="stroke-linecap:butt;stroke-linejoin:round" id="use485" width="100%" height="100%" x="100.684" y="0" xlink:href="#DejaVuSans-6f"/><use style="stroke-linecap:butt;stroke-linejoin:round" id="use487" width="100%" height="100%" x="161.865" y="0" xlink:href="#DejaVuSans-74"/></g></g></g></g></g><defs id="defs498"><clipPath style="stroke-linecap:butt;stroke-linejoin:round" id="pe44d299347"><rect style="stroke-linecap:butt;stroke-linejoin:round" id="rect495" width="178.56" height="125.446" x="20.53" y="5.3"/></clipPath></defs></svg>